# xmcd CD database file
#
# Track frame offsets:
#	150
#	33130
#	76654
#	112589
#	155763
#
# Disc length: 2237 seconds
#
# Revision: 0
# Processed by: cddbd v1.5.2PL0 Copyright (c) Steve Scherf et al.
# Submitted via: CDex 1.70beta2
#
DISCID=2608bb05
DTITLE=Anouar Brahem - Souvenance - CD 2
DYEAR=2014
DGENRE=Jazz
TTITLE0=January
TTITLE1=Like a dream
TTITLE2=On the road
TTITLE3=Kasserine
TTITLE4=Nouvelle vague, var.
EXTD=YEAR: 2014
EXTT0=
EXTT1=
EXTT2=
EXTT3=
EXTT4=
PLAYORDER=
